<?xml version="1.0" encoding="utf-8"?>
<!-- Generator: Adobe Illustrator 29.3.1, SVG Export Plug-In . SVG Version: 9.03 Build 55982)  -->
<svg version="1.0" xmlns="http://www.w3.org/2000/svg" xmlns:xlink="http://www.w3.org/1999/xlink" x="0px" y="0px"
	 viewBox="0 0 1000 700" enable-background="new 0 0 1000 700" xml:space="preserve">
<g id="Layer_1" display="none">
	<g display="inline">
		<g>
			<path fill="#FFFFFF" d="M174.8,196.5c50.5,28.5,236.3,88.4,247.2-25.7c53.3,51.3,98.4,78.4,155.7-12.8
				c6.8,47,27.3,121.1,213.1,34.2c-50.5,74.1-53.3,122.6,12.3,136.8c-88.8,35.6-79.2,65.6-24.6,109.7
				c-62.8,7.1-79.2,32.8-28.7,122.6c-98.4-61.3-157.7-148.2-269.4-7.1c-32.5-64.1-91.2-82.7-199.1-18.5
				c39.6-68.4,42.3-122.6-106.5-69.8c75.1-45.6,90.2-105.5-16.4-106.2C218.5,341.9,279.9,283.5,174.8,196.5z"/>
			<g>
				<path d="M172,197.6c14,7.8,29,13.9,44.1,19.3c20.1,7.2,40.7,13,61.7,17c37.4,7.1,83.5,11.4,117.1-10.5
					c18.4-11.9,27.8-31.5,30-52.9c-1.9,0.5-3.7,1-5.6,1.5c18.1,17.4,38.3,36.6,62.8,44.5c21.9,7,43.9,0.4,61.3-13.8
					c15.2-12.4,26.9-28.5,37.3-45c-1.9,0.4-3.8,0.8-5.8,1.2c3,20.7,8.5,42.6,24.4,57.4c24.4,22.7,62.5,19.4,92.4,13
					c35-7.5,68.6-21.3,100.9-36.4c-1.5-0.1-2.9-0.3-4.4-0.4c-15.4,22.7-31.3,47.8-36.4,75.2c-3.3,18,0,36.2,14.9,48.1
					c9.8,7.8,22,11.9,34.1,14.6c0.4-0.7,0.9-1.3,1.3-2c-14.2,5.7-28.3,12-41.2,20.2c-8.4,5.3-16.7,11.7-22.1,20.2
					c-9.4,14.8-2.7,30.4,7.3,42.9c8.6,10.6,19.1,19.7,29.7,28.3c1.1-0.8,2.1-1.5,3.2-2.3c-18,2.1-40.3,5.5-53.2,19.7
					c-13.1,14.4-8.9,35.8-3.4,52.5c6.1,18.3,15.1,35.6,24.5,52.4c1.9-0.6,3.7-1.2,5.6-1.8c-35.8-22.4-68.1-51.2-106.1-70.1
					c-15.1-7.5-31.5-13-48.5-13.4c-18.3-0.4-36.2,5.1-52.1,14.1c-27.2,15.4-48.9,39.2-68.1,63.4c1.8-0.3,3.7-0.6,5.5-0.9
					c-11.6-22.8-28.6-43.4-53-52.9c-27.1-10.5-57.6-5.7-84.4,3.2c-23.3,7.7-45.2,19-66.3,31.4c1.5,0,3.1,0,4.6,0.1
					c7.2-12.5,14-25.5,18.6-39.2c3.2-9.5,5.8-20.2,3.9-30.3c-4.6-24.3-35.2-23.6-54.1-21.4c-27,3.2-53.4,11.7-78.9,20.7
					c1.1,0.3,2.2,0.7,3.3,1c22.1-13.5,47.7-31.7,57.7-56.7c3.2-8,4.3-17.1,0.4-25c-4.2-8.7-12.8-14.2-21.5-17.7
					c-16.9-6.9-36-8-54-8.2c-0.3,0.8-0.6,1.6-0.9,2.4c23.6-7.1,47.6-19.3,62.8-39.2c16.5-21.6,16.1-48.2,3.7-71.7
					c-11.3-21.5-29.2-39-47.7-54.3C176.2,194.4,170.9,196.6,172,197.6c25.5,21.2,55.3,50.4,56.8,85.9c1,24.2-14,44.3-33.2,57.5
					c-11.4,7.9-24.3,13.7-37.6,17.7c-1.6,0.5-4.1,2.3-0.9,2.4c16.2,0.2,33,1.3,48.4,6.7c9,3.2,18.4,8.3,23.2,16.9
					c9.7,17.7-4.9,37.9-16.8,50.3c-11.5,12.1-25.2,22-39.4,30.7c-2.5,1.5,2.5,1.3,3.3,1c22.8-8.1,46.3-15.5,70.3-19.1
					c12.7-1.9,27-3.2,39.3,1.5c19.8,7.6,17.5,29.8,12.1,46.5c-4.6,14.2-11.6,27.7-19.1,40.6c-0.8,1.4,4.2,0.3,4.6,0.1
					c48.7-28.8,120.7-62.3,169.6-15.9c10.4,9.9,18.4,21.9,24.9,34.7c0.8,1.5,4.8,0,5.5-0.9c26.8-33.7,64.1-75.4,111.2-74.6
					c35.3,0.6,66.7,23.2,94.4,42.7c19.3,13.6,38.4,27.7,58.4,40.2c0.9,0.6,6.4-0.4,5.6-1.8c-8-14.3-15.6-28.8-21.5-44.1
					c-4-10.2-7.4-20.9-8.1-31.9c-1.2-16.6,6.1-30.1,21.5-36.8c10.5-4.6,22.2-6.4,33.5-7.7c0.5-0.1,4.4-1.3,3.2-2.3
					c-14.8-12-33.1-26.3-39.6-44.9c-6-16.9,5-30.6,18.2-40.2c13.5-9.7,29-16.6,44.4-22.8c0.3-0.1,3.1-1.6,1.3-2
					c-18.6-4.1-39.1-12.5-46.3-31.7c-7.3-19.3,0.2-41.3,8.2-59c7.2-15.8,16.4-30.7,26.1-45c1.3-2-3.8-0.7-4.4-0.4
					c-29,13.5-58.9,25.9-90.1,33.5c-19,4.6-39.2,7.7-58.8,4.9c-24.3-3.4-42.9-18-51.9-40.8c-4-10.3-6.2-21.2-7.8-32.1
					c-0.3-1.8-5.2,0.4-5.8,1.2c-14.1,22.2-33.5,50.4-60.9,57c-20.6,4.9-40.9-5.9-57-17.8c-11.5-8.4-21.9-18.1-32.2-27.9
					c-0.9-0.9-5.4,0.1-5.6,1.5c-1.9,18.3-8.9,36.1-23.6,47.8c-14,11.2-32.2,15.6-49.7,16.9c-40.4,3.1-81.9-6.8-119.8-19.9
					c-16.6-5.7-33.2-12.1-48.5-20.7C176,194.6,171.1,197,172,197.6z"/>
			</g>
		</g>
		<g>
			<path fill="#FFFFFF" d="M282.5,151.2c-19.4,6-38.8-21.2-13.7-29.5c-5.7-25.3,24.3-37.3,39.3-12.9c25.6-18.4,39.7-8.3,31.8,10.6
				c22.1,0,23.4,23,1.6,20.7c4.6,21.6-15.7,23.5-26.8,7.8C318.7,171.9,287.3,177,282.5,151.2z"/>
			<g>
				<path d="M281.9,149.1c-7.5,2.1-15.7-1.2-19.9-7.8c-4.9-7.7-0.6-14.6,7.3-17.4c1.3-0.4,2.6-1.4,2.3-2.9
					c-1.8-8.8,0.7-19.1,10-22.3c9.8-3.4,18.8,3.7,23.8,11.5c1,1.5,3.4,1,4.6,0.1c6-4.2,17-11.9,24.9-8.1c6.3,3,4.2,11.8,2.2,16.8
					c-0.7,1.8,1.1,2.6,2.6,2.7c5.5,0.1,13.4,2.2,14.4,8.7c1.1,6.7-6.7,7.9-11.6,7.5c-1.7-0.1-4.3,0.9-3.9,3c1,5.1,1.4,14.1-5.6,15
					c-6.3,0.8-12.2-4.7-15.6-9.3c-1.6-2.1-5.9-0.6-5.5,2.1c1.1,7.5-1.8,16.6-10.5,17.3c-9.1,0.8-14.3-7.9-16-15.6
					c-0.6-2.9-6.4-1.4-5.8,1.6c2.3,11,10.9,20.3,22.9,18.4c11.5-1.8,16.7-12.4,15.1-23.2c-1.8,0.7-3.7,1.4-5.5,2.1
					c5.1,6.9,13.8,13.1,22.8,10.8c9.6-2.4,11.1-12.3,9.5-20.7c-1.3,1-2.6,2-3.9,3c7.7,0.6,19.5-1.6,19.6-11.6
					c0-10.1-12-13.5-20-13.7c0.9,0.9,1.7,1.8,2.6,2.7c2.9-7.3,4.3-17.9-4.5-21.8c-10.7-4.7-23.7,3.4-32.1,9.3c1.5,0,3.1,0.1,4.6,0.1
					C304,97.1,292,90.1,279.6,94.6c-11.7,4.3-16.1,16.3-13.7,27.9c0.8-1,1.5-1.9,2.3-2.9c-9.9,3.5-18.1,12-12.4,22.8
					c5.1,9.6,17,13.8,27.2,11C286.6,152.3,285.5,148,281.9,149.1z"/>
			</g>
		</g>
		<g>
			<path fill="#FFFFFF" d="M661.3,155.1c-10.9-8.1-4.1-21.1,11.9-14.6c17.1-18.4,35.7-13.5,28.5,6.5c21.7,3.5,21.5,32-11.9,14.6
				C680.9,177.3,647.8,183.2,661.3,155.1z"/>
			<g>
				<path d="M664,154.1c-2.8-2.2-5.5-5.3-5.1-9.1c0.6-6.5,7.6-4.9,11.9-3.3c1.4,0.5,4-0.3,5-1.3c4.5-4.7,13.5-13.4,20.7-8.8
					c5.4,3.4,3.9,11,2.2,16c-0.1,0.4,0.1,0.6,0.5,0.7c6.1,1.1,14.2,5.2,14.4,12.4c0.4,11-17,2.2-21.2,0c-1.4-0.7-4.8,0.1-5.6,1.5
					c-3.6,6.1-11.7,12.3-19.2,11.4c-9.9-1.2-6.3-12.9-3.5-18.8c0.5-1-5-0.5-5.7,1c-2.1,4.6-5,11.5-1.9,16.4
					c2.1,3.4,6.4,4.1,10.1,3.9c10-0.4,20.8-6.1,26-14.9c-1.9,0.5-3.7,1-5.6,1.5c7.5,3.8,16.3,7.5,24.9,5c4.5-1.3,8.4-4.5,7.5-9.7
					c-1.1-6.4-7.2-9.3-12.5-11.4c-1.3-0.5-1.6,0-1.9-1.4c-0.2-1,0.8-2.9,0.9-4c0.3-2.1,0.4-4.2-0.2-6.2c-0.9-3.2-3.2-5.6-6.4-6.5
					c-10.6-3.1-22,5.3-28.8,12.4c1.7-0.4,3.3-0.9,5-1.3c-6.1-2.3-14.3-3-19.7,1.7c-5.4,4.7-2,11.4,2.7,15.1
					C659.8,157.1,664.9,154.9,664,154.1z"/>
			</g>
		</g>
		<g>
			<path fill="#FFFFFF" d="M627.5,586.1c-10.6-8.4-14.6-30.5,13.1-18.9c8.6-18.4,27.7-19.5,30.2-0.5c20.2-3.7,28.2,13.7,15.6,24.7
				c6.6,14.2-3.5,34.2-35.3,12.6C636.6,623.4,604.3,617,627.5,586.1z"/>
			<g>
				<path d="M630.2,584.9c-4-3.3-7.6-8.5-7.8-13.9c-0.4-9.3,10.9-4.6,15.9-2.6c1.7,0.7,4.4-0.1,5.2-1.8c2.6-5.3,8-13.2,14.9-12.2
					c6.2,0.9,8.7,7.5,9.5,12.8c0.1,0.9,1.9,0.9,2.5,0.8c6.7-1.1,14.7,0.1,18,6.9c2.8,5.7,0.1,11.8-4.3,15.9
					c-0.2,0.2-0.8,0.8-0.6,1.2c2.4,5.4,3.2,13.1-1.6,17.6c-7.5,7-22.2-2.9-28.5-7.1c-1.3-0.9-4.1,0.2-5,1.3c-4.7,6-14.5,12.8-22.2,8
					c-9.5-5.9-0.4-19.9,3.9-25.8c1.5-2-4.3-1.6-5.4-0.1c-5.7,7.8-15,25-0.7,29.7c10.9,3.6,23.2-3.4,29.8-11.8
					c-1.7,0.4-3.3,0.9-5,1.3c9,6,21,12.5,32.1,8.5c6.7-2.4,10.5-8.3,10.3-15.3c-0.1-2-0.7-3.8-1-5.8c-0.1-0.6-0.7-1.2-0.6-1.9
					c0.2-0.8,2.2-2.4,2.6-3c2.4-3.4,3.7-7.7,2.8-11.9c-2.3-10.6-14.9-12.4-23.9-11c0.8,0.3,1.7,0.5,2.5,0.8
					c-1.3-8.4-6.6-15.3-15.8-14.5c-9.5,0.8-16.3,8.1-20.2,16.2c1.7-0.6,3.5-1.2,5.2-1.8c-6.9-2.8-20.9-7.2-25.5,1.9
					c-3.4,6.6,2.4,15.4,7.3,19.5C626.4,588.4,631.7,586.2,630.2,584.9z"/>
			</g>
		</g>
		<g>
			<path fill="#FFFFFF" d="M252.9,574.4c-9-13.3,0-27.3,17.6-26.9s20.2,14.4,14.6,24.6c16.8-8.2,35.5-9,22.1,8.6
				c15.7,1.2,25,17.6-10.1,12.5c14.6,6.6,19.4,18.3,6,30.8c-13.5,12.5-44.5,8.2-40.7-23.8c-13.8,9-43,10.5-44.5-9
				C216.3,571.7,234.6,562.3,252.9,574.4z"/>
			<g>
				<path d="M255.6,573.1c-3.1-4.8-4.6-10.8-1.6-16c3.5-6.2,11.2-7.9,17.7-7.3c12,1.1,15.8,12,10.6,21.9c-1.3,2.4,2.7,2.7,4.1,2.1
					c5.4-2.6,12.1-5.5,18.3-5.2c7.4,0.4,2.6,7.7,0,11.1c-1,1.4-0.3,2.9,1.4,3c2.8,0.3,12.2,2.1,12,6.5c-0.2,5.1-17.6,2.1-20.1,1.7
					c-2.3-0.3-5.9,2.6-2.7,4.1c10.1,4.8,16.7,13.9,8.8,24.1c-4.2,5.5-10.2,8.7-17.1,9c-5.9,0.2-12-1.8-16.1-6.1
					c-5.7-5.9-6.5-14.4-5.7-22.2c0.3-2.6-3.6-1.9-4.9-1.1c-9.6,6-30,10-37.5-1.5c-4.1-6.2-2.6-16.3,2.3-21.6c7-7.4,18-4.3,25.5,0.4
					c2.2,1.4,7.2-1.6,4.5-3.4c-9.1-5.8-20.9-8.5-30.6-2.3c-8.4,5.3-12.2,17.2-8.6,26.6c7.1,18,35.7,12.4,48.2,4.6
					c-1.6-0.4-3.2-0.8-4.9-1.1c-1,9.6,0.6,19.7,8.3,26.3c6.1,5.2,14.6,6.8,22.3,5.5c9.2-1.5,17.6-7.1,21.9-15.5
					c6-11.7-3.2-20.8-13.2-25.5c-0.9,1.4-1.8,2.7-2.7,4.1c5.8,0.8,26.6,4.2,28-5.9c1-7.2-10.9-10.4-15.9-10.9c0.5,1,1,2,1.4,3
					c3.5-4.8,9-13.9,0.3-16.6c-8.3-2.6-18.8,1.9-26.1,5.4c1.4,0.7,2.7,1.4,4.1,2.1c2.9-5.6,4.1-12.6,0.9-18.4
					c-3.7-6.7-11.6-8.7-18.7-8.7c-7.8,0-16.2,2.9-20.7,9.6c-4.4,6.6-3.1,14.3,1,20.7C251.7,578,257.2,575.7,255.6,573.1z"/>
			</g>
		</g>
		<g>
			<path fill="#FFFFFF" d="M107.3,407.7c-5.6-19.7,14.6-26.1,18.7-8.2c22-5.6,29.9,17.1-1.5,14.4c22.7,12.7-1.9,34-13.5,8.6
				C77.6,435.8,83.8,395.4,107.3,407.7z"/>
			<g>
				<path d="M110.2,406.9c-1.2-4.5-2.1-13,3.5-15.3c5.2-2.2,8.4,4.8,9.4,8.7c0.4,1.5,2.3,1.6,3.5,1.3c4.2-1,14.4-1.8,15.7,4.3
					c1.5,7-13.5,6-16.8,5.8c-1.6-0.1-6,2.3-3.2,4c4.4,2.6,12.7,10,6.6,15.3c-6.2,5.3-13.1-5.3-15.2-9.7c-0.7-1.4-2.9-0.9-4-0.5
					c-6,2.3-19.3,4.9-19-5.4c0.2-8.6,9.1-8.5,14.9-5.5c2.5,1.3,6.6-2.4,3.3-4.1c-9.1-4.6-23.5-2.4-24.1,10
					c-0.2,4.5,2.2,8.4,6.3,10.3c6.7,3.2,14.7,0.9,21.2-1.6c-1.3-0.2-2.6-0.3-4-0.5c4.1,8.6,14.4,17.5,23.9,10.3c9.3-7,2-17.5-5.6-22
					c-1.1,1.3-2.1,2.6-3.2,4c6.6,0.5,26.2,0.5,24.7-10.9c-1.3-9.9-16-9.5-22.8-7.9c1.2,0.4,2.3,0.9,3.5,1.3
					c-1.9-7.6-8.1-14.2-16.5-11.4c-8.9,3-10.1,13.2-8,21.1C105.2,411.3,111,409.8,110.2,406.9z"/>
			</g>
		</g>
		<g>
			<g>
				<path d="M163.6,403.2c8.9-0.2,18-3.3,26.5-5.7c8.9-2.6,18.2-5.1,26.4-9.4c3.4-1.8-1.8-2.1-3.5-1.2c-7.3,3.8-15.7,6-23.6,8.3
					c-7.4,2.2-15.6,5.1-23.5,5.3C164.1,400.5,159.7,403.3,163.6,403.2L163.6,403.2z"/>
			</g>
		</g>
		<g>
			<g>
				<path d="M152.9,417.4c10.8-0.7,21.8-5.5,31.7-9.4c9.7-3.7,19.7-7.5,28.7-12.6c3.4-1.9-1.7-2.6-3.6-1.6
					c-8.3,4.7-17.5,8.1-26.3,11.5c-9.3,3.6-19.7,8.3-29.8,9C150.9,414.6,148.8,417.7,152.9,417.4L152.9,417.4z"/>
			</g>
		</g>
		<g>
			<g>
				<path d="M172.7,423.2c7.7-2,15.2-6.2,22.3-9.7c5.9-3,14.4-6,18.9-11.1c2.3-2.6-3.3-2.8-4.7-1.2c-1.5,1.7-4.1,2.8-6,4
					c-3.8,2.2-7.7,4.1-11.6,6.1c-6.3,3.1-12.9,6.9-19.8,8.7C168.3,420.9,169.1,424.1,172.7,423.2L172.7,423.2z"/>
			</g>
		</g>
		<g>
			<g>
				<path d="M302.1,557.3c11.3-10.7,25.3-19.3,38.2-28c7.9-5.3,15.9-10.5,24-15.4c5.3-3.2,10.8-6.8,16.6-9c3.8-1.4,0.3-2.5-2.1-1.6
					c-6.1,2.3-11.8,5.8-17.3,9.2c-8.4,5-16.6,10.4-24.7,15.8c-13.5,9.1-28.1,18.1-40,29.3C295.4,558.8,301,558.3,302.1,557.3
					L302.1,557.3z"/>
			</g>
		</g>
		<g>
			<g>
				<path d="M326,557.5c12.8-9.5,25.9-18.5,39.3-27.1c7.9-5.1,15.9-10.1,24.2-14.7c6-3.3,12.2-6.8,18.8-8.5c3.4-0.9,2.9-2.8-0.5-1.9
					c-15.6,4.1-30.2,14.1-43.6,22.7c-14.5,9.3-28.8,19-42.6,29.3C319.2,559,324.9,558.3,326,557.5L326,557.5z"/>
			</g>
		</g>
		<g>
			<g>
				<path d="M557.9,496.9c4.6,2,8.4,5.8,12,9.2c5.5,5.2,10.6,10.7,15.6,16.3c8.1,9,16.4,18.3,23.1,28.5c1.3,1.9,6.9-0.1,5.3-2.4
					c-6.9-10.5-15.6-20.1-23.9-29.4c-5-5.5-10.1-11-15.5-16.1c-3.6-3.4-7.5-7.1-12.1-9.1C560.4,492.9,555.2,495.7,557.9,496.9
					L557.9,496.9z"/>
			</g>
		</g>
		<g>
			<g>
				<path d="M570.8,490.5c10.5,5.3,19.4,14.5,27.6,22.8c8.4,8.6,17.1,17.8,23,28.3c1,1.7,6.5-0.3,5.8-1.6
					c-6.1-10.7-14.8-20.1-23.4-28.9c-8.4-8.5-17.5-17.7-28.3-23.2C574,487.2,568.7,489.4,570.8,490.5L570.8,490.5z"/>
			</g>
		</g>
		<g>
			<g>
				<path d="M625.3,212.5c12.4-8,24.8-16,37.1-23.9c3.3-2.1-1.4-4.5-3.9-2.9c-12.4,8-24.8,16-37.1,23.9
					C618.1,211.7,622.8,214.1,625.3,212.5L625.3,212.5z"/>
			</g>
		</g>
		<g>
			<g>
				<path d="M642.3,212.5c7.2-4.9,14.4-9.9,21.5-15c9.4-6.7,19.7-13.4,27.7-21.9c2.5-2.7-3-3.9-4.9-1.9
					c-7.9,8.3-18.3,14.9-27.6,21.5c-6.8,4.9-13.7,9.6-20.6,14.3C635.1,211.8,639.8,214.2,642.3,212.5L642.3,212.5z"/>
			</g>
		</g>
		<g>
			<g>
				<path d="M337.3,166.9c5,9.3,13,17.4,20.1,25c7.1,7.6,15.1,16.7,24.8,21.1c1.4,0.6,6.7-1.5,4.7-2.4c-9.3-4.3-17.2-13.5-24-20.8
					c-7-7.4-14.9-15.4-19.8-24.5C342.3,163.8,336.7,165.8,337.3,166.9L337.3,166.9z"/>
			</g>
		</g>
		<g>
			<g>
				<path d="M322.6,169.1c3.4,6.1,6.9,12.1,10.5,18.1c5.4,8.8,10.9,18.4,18.3,25.8c1.4,1.4,6.8-0.8,5.4-2.2
					c-7.2-7.1-12.5-16.3-17.7-24.8c-3.7-6-7.3-12.2-10.7-18.4C327.4,165.7,321.8,167.7,322.6,169.1L322.6,169.1z"/>
			</g>
		</g>
		<g>
			<g>
				<path d="M310.8,179c3.5,10.2,8.6,19.8,14.5,28.9c4.7,7.2,10,14.9,16.9,20.1c1.5,1.2,6.8-1.1,5.4-2.2c-6.5-5-11.5-12.1-16-18.9
					c-6.1-9.2-11.4-19-15-29.5C315.9,175.6,310.2,177.3,310.8,179L310.8,179z"/>
			</g>
		</g>
	</g>
</g>
<g id="Layer_4" display="none">
	<g display="inline">
		<path fill="#FFFFFF" d="M936.6,211c-1.5,1.9-12,5.6-10.7,0.3c3.9-16.5-3.9-33.7-21-38.2c-26.3-6.8-54.6,26.4-28.6,45.9
			c1.1,0.8,1.4,1.7,1.1,2.6c2.6-1,5.1-2.1,7.7-3.1c2.2-0.9,6-1.5,7.5,0.9c1.4,2.2-0.3,5-2.6,5.9c-6.8,2.8-13.6,5.6-20.4,8.3
			c-47.1,19.2-94.2,38.5-141.3,57.7c-2.2,0.9-6,1.5-7.5-0.9c-1.4-2.2,0.3-5,2.6-5.9c6.8-2.8,13.6-5.6,20.4-8.3
			c12.6-5.1,25.1-10.3,37.7-15.4c-0.5-0.2-0.8-0.5-0.9-1c-3.3-23.6-19.6-42-41.5-50.6c-16-6.3-39.8-10-53.1,3.9
			c-1.5,1.6-4.2,2.6-6.5,2.8c2.7,4,5,8.4,7,12.9c1.7,3.9-9.2,7.2-11,3c-5.4-12.6-13.9-23.9-27.1-29c-10-3.9-20.8-3.5-31.1-1.6
			c-2,0.4-5-0.4-4.9-2.9c0.1-2.6,4.2-3.7,6.2-4c10-1.8,20.4-2.2,30.3,0.1c1.8-7.6,0.1-15.2-4.5-21.9c-11.8-16.9-34.7-25.2-54.5-27.1
			c-24.8-2.4-48.9,5.3-65.6,24.3c-0.1,0.2-0.3,0.3-0.5,0.4c6.6,2.1,13.1,4.9,19.4,8.4c4.3,2.4-5.9,6.8-8.8,5.1
			c-19.2-10.7-40.7-15.2-62.3-9.5c-9.5,2.5-18.4,6.7-26.8,11.7c-0.8,1.4-2.9,2.6-5,3.1c-4.5,2.9-8.8,6.1-13,9.4
			c-1.9,1.5-5.4,2.8-7.8,2.1c-2-0.6-2.9-2.1-1-3.6c4.7-3.7,9.5-7.2,14.6-10.5c-38.2-28.3-98.8-26.2-129.5,12.6
			c-0.9,1.2-2.8,1.9-4.7,2.1c6.6,14.7,13.2,29.3,19.9,44c1.9,4.3-9,7.5-11,3c-12.7-28.2-25.5-56.4-38.2-84.6c-1.9-4.3,9-7.5,11-3
			c1.1,2.5,2.2,5,3.4,7.5c0.8-0.2,1.6-0.2,2.4,0c4.2,1,7.7,1.6,8.8-3.3c0.9-3.6-0.4-7.5-2.4-10.5c-1.2-1.8-0.1-3.7,1.4-5
			c10.3-8.7,25.4-28.3,10.6-40.6c-12.3-10.3-28.2,13.7-33.4,22.2c-2.3,3.8-13.2,4.9-10.5-1.3c2.7-6.4,1.4-15.5-0.8-22
			c-2.7-8.3-8.8-15-17.9-15.9c-11.9-1.2-27.4,4.8-33.9,15c-7.5,11.8-3.4,28.7,3.5,40c2.1,3.5-2.5,6.3-5.5,6.5
			c-9.7,0.5-21.4,2.5-27.5,11.1c-3.9,5.5-4.3,12.8-1.3,18.8c10.2,20.7,36.2,9.6,49.6-0.6c0.3-0.2,0.6-0.4,0.9-0.6
			c-3-3.9-5.9-7.9-8.9-11.8c-2.9-3.8,7.8-7.7,10.2-4.4c21.2,28.2,42.5,56.4,63.7,84.6c2.9,3.8-7.8,7.7-10.2,4.4
			c-4.7-6.2-9.3-12.4-14-18.6c-0.1,0-0.1,0-0.2,0c-24,4.2-47.6,22-61.4,41.6c-6.7,9.4-11.8,21-10.8,32.8
			c0.9,10.9,7.1,19.7,15.1,26.5c0.6-1.1,1.2-2.3,1.9-3.4c7.8-12.7,19.9-21.6,31.5-30.5c4.4-3.3,13.3,0.5,7.3,5
			c-10.3,7.8-21.3,15.6-28.3,26.7c-9.2,14.6-7.7,31.3-1.8,46.9c1.8,4.8-9.2,7.9-11,3c-3.3-8.8-5.2-17.9-4.9-26.8
			c-15.4,5.1-30.2,15.5-38.1,29.8c-11.4,20.5-4.1,42.9,8.3,61c22.6-9.1,45.3-18.2,67.9-27.3c1.9-0.8,6-1.7,7.4,0.6
			c1.4,2.2-0.7,4.4-2.7,5.2c-5.9,2.4-11.7,4.7-17.6,7.1c-41.6,16.7-83.2,33.4-124.8,50.1c-1.9,0.8-6,1.7-7.4-0.6
			c-1.4-2.2,0.7-4.4,2.7-5.2c5.9-2.4,11.7-4.7,17.6-7.1c1.8-0.7,3.5-1.4,5.3-2.1c-1.1-0.1-1.9-0.5-2.1-1.2
			c-3.2-13-14.3-23.5-26.3-28.7c-16.5-7.2-34.2-2.8-45.1,12c-17.3,23.5,30,40,45.7,43.3c3.8,0.8-3,4.3-3.9,4.5
			c-14.5,3.4-31.2,4.3-44.7,10.7c-10.8,5.1-10.8,16.6-7.6,26.7c2.9,9,9.8,15.9,19.1,17.9c24.8,5.5,45.6-20.8,54.4-40.3
			c0.2-0.5,0.6-0.9,1.1-1.2c0.4-1.9,0.9-3.7,1.5-5.4c1.4-4.5,12.6-5.8,11.1-1c-3.5,11.3-6.3,26.2,2.2,36.1c6,6.9,15.7,7.9,24,5.4
			c10.6-3.2,24-13.1,22.4-25.5c-1.3-9.8-13.4-22.7-24-22.3c-3.6,0.1-7.4-3.4-3-6c29.4-17.7,58.9-35.5,88.3-53.2
			c2-1.2,5.8-2.5,7.9-0.8c1.9,1.6,1.4,4-0.7,5.3c-16.5,9.9-32.9,19.8-49.4,29.8c28.9,18.6,82.6,31.5,97.7-9.9
			c1.5-4,12.6-5.3,11.1-1.2c-2,5.4-4.5,10.1-7.5,14.1c0.5,0.2,0.9,0.4,1.1,0.8c15.1,47.9,82.5,47.3,115.6,19.6
			c0.3-0.2,0.6-0.5,0.9-0.7c4.9-14.8,9.7-29.7,14.6-44.5c1.4-4.3,12.6-5.6,11.1-1c-3.2,9.9-6.5,19.8-9.7,29.8
			c-14.2,43.4-28.4,86.8-42.6,130.2c-6.2,18.9-12.4,37.9-18.6,56.8c1.5-2,3-3.9,4.4-5.9c32.9-43.4,65.7-86.7,98.6-130.1
			c20.6-27.2,41.2-54.4,61.8-81.6c2.7-3.6,13.2-2.7,9.1,2.7c-6.7,8.9-13.5,17.8-20.2,26.7c0.1,0.1,0.2,0.1,0.3,0.2
			c10.4,8.1,23.5,10.8,36.3,8.5c7.6-1.4,17.3-4.5,22.2-11c-1.4-5.5-2.9-11-4.3-16.5c-0.8-3.2,10.2-6,11-3
			c7.6,29,15.1,58.1,22.7,87.1c0.2,0.8-0.4,1.6-1.4,2.3c3.9,1.8,7.5,4.1,10.4,7c2.1,2.1-8.1,6.1-10.3,3.9
			c-7.5-7.3-32.5-18.8-37.2-3.7c-3.1,10.1,2.1,21.4,10,27.6c10.3,8.1,22.1,7.6,31.5-1.3c1-0.9,10.5-4.9,10.5-1.7
			c0.3,24.1,25.2,28.5,43.2,18.4c10.7-6,18.9-16.3,13.6-28.8c-4.5-10.6-15.6-17.8-26.1-21.5c-3.6-1.3,3-4,3.9-4.3
			c14.7-4.3,26.2-25,11-36c-19.4-14.1-26.7,15-27.6,29.1c-0.2,3-9.7,5.9-11,3c-12.2-27.9-24.4-55.8-36.6-83.7c-1.1-2.4,9.7-6,11-3
			c2.2,5,4.4,10,6.6,15c2.1-0.6,4.2-0.9,5-0.1c13.3,13,35.1,17.7,53.2,15.9c24.2-2.4,40-21.4,44-44.6c0.5-3.2,11.2-3.7,11-3
			c-0.8,4.8-2.1,9.5-3.9,14c1-0.1,2-0.1,2.9,0c14,1.8,29.8,2.3,42.6-4.7c29.5-16.1,31.6-62.8,12.6-87.8c0,0,0-0.1,0-0.1
			c-7.1,4.9-14.9,8.8-22.7,12c-4.2,1.7-11.1,0.4-3.8-2.5c18.3-7.4,35.5-20.7,40.2-40.8c3.1-13.3-0.2-27.2-7.3-38.6
			c-16.1,4.9-32.2,9.9-48.2,14.8c-6.6,2-8-3.6-1.5-5.6c6.7-2.1,13.5-4.1,20.2-6.2c37.3-11.5,74.5-22.9,111.8-34.4
			c1.5-1.2,3.8-1.8,5.8-1.8c8.3-2.6,16.7-5.1,25-7.7c6.6-2,8,3.6,1.5,5.6c-6.7,2.1-13.5,4.1-20.2,6.2c-0.8,0.2-1.5,0.5-2.3,0.7
			c0.8,9.8,9.5,12.1,18.6,11.9c1.1,0,3.3,0.6,3.5,2c1.5,14.5,15.9,23.3,29.7,18.5c19.1-6.6,10.2-28.5,1.3-39.8
			c-2.8-3.6,5-5.7,7.1-5.7c12.7-0.3,27.7-1.1,38.7-8.2c10.2-6.6,11.6-18.8,8-29.7C978.1,185.2,947.6,196.6,936.6,211z"/>
		<path d="M987.7,192.8c-8.8-6.3-20.9-5.5-30.7-2.6c-6.7,2-13.3,5-19.1,9.1c-0.5-11.4-5.8-22.4-15.9-28.4
			c-21.5-12.7-54.5-3.3-65,19.9c-6,13.3-0.6,25.6,10.5,34c0.3,0.2,0.6,0.4,1,0.5c-25.7,10.5-51.4,21-77.1,31.5
			c-3.9-27.3-25-47.2-50.9-54.7c-20.5-5.9-47.5-5.3-63.7,10.4c-4.9-6.2-11-11.4-18.5-14.8c0.1-0.2,0.2-0.3,0.3-0.5
			c8.1-20.5-9.1-38.1-25.8-47.1c-23-12.3-51.8-15.3-76.9-8.1c-15.8,4.5-29.9,13.2-40.8,25.6c-0.1,0.2-0.3,0.3-0.4,0.4
			c-13.8-2.9-28.1-2.8-42.4,0.7c-10.7,2.6-20.8,6.9-30.3,12.3c-42.1-31.8-111.6-27.7-146.2,13.7c-2.7-6-5.4-12-8.2-18
			c6.5,0.2,13.1-1.9,16.6-7.8c3.1-5.4,2.5-11.8-0.2-17.1c14.3-13.5,28.2-37.8,6.5-51.4c-13.2-8.2-27,0.9-37.4,12.3
			c-1.9-12.9-10.3-25.2-22.6-28.4c-14.6-3.8-33.2,2-44.6,11.4c-10.1,8.3-14.1,20.1-12.5,32.9c0.7,5.9,2.5,11.8,5.1,17.3
			c-16.1,2.7-34,11.2-34.5,29.3c-0.4,17.2,15.7,27.7,31.5,27.7c13.7,0,26.4-6.5,37.2-14.5c10.8,14.3,21.6,28.6,32.4,42.9
			c-26,6-50.7,23-66.6,44c-7.7,10.2-13.8,22.5-13.5,35.6c0.4,14.5,9.5,26,20.9,34.1c0.5,0.3,1.2,0.5,1.9,0.6
			c-0.7,2.4-1.2,4.8-1.5,7.3c-18.6,5.6-37.1,16.6-47.7,33.3c-13.9,22.1-6.7,46.5,7.2,66.5c-10.8,4.3-21.6,8.7-32.4,13
			c0.1-0.2,0.1-0.4,0-0.6c-6.4-25.8-37.5-39.2-61.7-33.1c-12.9,3.2-29.7,12.6-34.4,26c-3.8,10.8,4.7,19.9,12.9,25.7
			c8.8,6.1,19,10.7,29.4,13.6c-12.8,2.4-25.9,4.5-37.5,10c-12.3,5.9-16.7,15.9-13.5,29.2c6.8,27.8,38.5,27.5,59.6,16.6
			c10.1-5.2,18.5-12.7,25.3-21.5c0.5,4.7,1.9,9.2,4.5,13.3c5.2,8.1,14.8,11.8,24.1,12c20.8,0.4,55.3-19.3,43.1-44.1
			c-4-8.2-12.2-15.4-21.3-18.4c7.5-4.5,15.1-9.1,22.6-13.6c28.4,18.5,75.4,28.2,102.2,6.1c18.8,45.8,84.6,41.9,123.1,19.2
			c-3.2,9.7-6.4,19.4-9.5,29.1c-14.2,43.4-28.4,86.8-42.6,130.2c-3.2,9.9-6.5,19.8-9.7,29.8c-1.5,4.7,8.5,2.9,10.1,0.8
			c20.6-27.2,41.2-54.4,61.8-81.6c31.8-42,63.6-84,95.4-125.9c12.6,7.9,27.6,9.6,42.3,6.8c7.7-1.5,16.9-4.1,24.2-8.8
			c5.1,19.6,10.2,39.2,15.3,58.8c-3.4-0.8-6.8-1.2-10-1.3c-10.7-0.4-24.7,3.1-27.6,15c-3.4,14.2,6.2,28.1,19.1,33.3
			c11.1,4.5,23.5,2.5,33.7-3.2c4.6,25.2,38.2,22.7,57.2,13.4c11.8-5.7,25.8-16.3,22.5-31.2c-2.7-12.3-14.3-21-25.7-25.7
			c8.7-3.8,16.5-10,19.3-19.4c3-10-1.5-19.7-10.9-24c-9.7-4.5-21.8-3.2-30.5,3.1c-5.3,3.9-8.6,9.3-10.8,15.2
			c-5.9-13.5-11.8-27-17.7-40.6c16,9.1,37.2,10.7,54.5,7.7c12.3-2.1,24.6-6.7,34.3-14.6c5.9-4.9,10.3-10.8,13.6-17.4
			c24.1,2.4,52.2-0.7,69.1-19.6c13.1-14.6,16.2-35.5,12.8-54.3c-1.7-9.3-5-18.7-10.7-26.2c-1.2-1.6-5.3-0.6-8.1,0.7
			c9.3-7.1,16.9-16,20.6-27.6c4.7-14.8,1.7-30.7-6.4-43.6c23.5-7.2,46.9-14.4,70.4-21.6c1.7,10.9,11.4,15,22.1,15.4
			c3.3,19.5,26,25.2,43,19.6c8.6-2.8,16.6-8.7,19.4-17.6c2.9-9.6-1.2-19.3-6.6-27.5c21.1-1.5,48-7,52.4-29.4
			C1000.2,212.9,996.9,199.3,987.7,192.8z M977.7,238.3c-11,7.1-26,7.9-38.7,8.2c-2.2,0.1-10,2.1-7.1,5.7
			c8.8,11.3,17.8,33.2-1.3,39.8c-13.8,4.8-28.3-4-29.7-18.5c-0.1-1.4-2.4-2-3.5-2c-9.1,0.2-17.8-2.1-18.6-11.9
			c0.8-0.2,1.5-0.5,2.3-0.7c6.7-2.1,13.5-4.1,20.2-6.2c6.5-2,5.1-7.6-1.5-5.6c-8.3,2.6-16.7,5.1-25,7.7c-2-0.1-4.4,0.6-5.8,1.8
			c-37.3,11.5-74.5,22.9-111.8,34.4c-6.7,2.1-13.5,4.1-20.2,6.2c-6.5,2-5.1,7.6,1.5,5.6c16.1-4.9,32.2-9.9,48.2-14.8
			c7.1,11.4,10.4,25.3,7.3,38.6c-4.7,20.1-21.9,33.4-40.2,40.8c-7.2,2.9-0.4,4.2,3.8,2.5c7.8-3.2,15.7-7.1,22.7-12c0,0,0,0.1,0,0.1
			c19,24.9,16.9,71.7-12.6,87.8c-12.8,7-28.6,6.5-42.6,4.7c-0.9-0.1-1.9-0.1-2.9,0c1.8-4.5,3-9.2,3.9-14c0.1-0.8-10.5-0.2-11,3
			c-4,23.2-19.8,42.1-44,44.6c-18.1,1.8-39.8-2.8-53.2-15.9c-0.8-0.8-2.9-0.5-5,0.1c-2.2-5-4.4-10-6.6-15c-1.3-3-12.1,0.5-11,3
			c12.2,27.9,24.4,55.8,36.6,83.7c1.3,3,10.8,0,11-3c0.9-14.1,8.1-43.1,27.6-29.1c15.2,11,3.7,31.7-11,36c-1,0.3-7.6,3.1-3.9,4.3
			c10.5,3.7,21.6,10.9,26.1,21.5c5.3,12.5-2.9,22.8-13.6,28.8c-17.9,10.1-42.8,5.7-43.2-18.4c0-3.2-9.6,0.8-10.5,1.7
			c-9.4,8.9-21.3,9.4-31.5,1.3c-7.9-6.2-13.1-17.6-10-27.6c4.7-15.1,29.7-3.6,37.2,3.7c2.2,2.2,12.5-1.9,10.3-3.9
			c-2.9-2.9-6.5-5.2-10.4-7c1-0.7,1.6-1.5,1.4-2.3c-7.6-29-15.1-58.1-22.7-87.1c-0.8-3.1-11.9-0.2-11,3c1.4,5.5,2.9,11,4.3,16.5
			c-4.9,6.5-14.6,9.6-22.2,11c-12.9,2.3-26-0.4-36.3-8.5c-0.1-0.1-0.2-0.2-0.3-0.2c6.7-8.9,13.5-17.8,20.2-26.7
			c4.1-5.4-6.3-6.3-9.1-2.7c-20.6,27.2-41.2,54.4-61.8,81.6c-32.9,43.4-65.7,86.7-98.6,130.1c-1.5,1.9-3,3.9-4.4,5.9
			c6.2-18.9,12.4-37.9,18.6-56.8c14.2-43.4,28.4-86.8,42.6-130.2c3.2-9.9,6.5-19.8,9.7-29.8c1.5-4.6-9.7-3.3-11.1,1
			c-4.9,14.8-9.7,29.7-14.6,44.5c-0.3,0.2-0.7,0.4-0.9,0.7c-33,27.7-100.5,28.3-115.6-19.6c-0.1-0.4-0.5-0.7-1.1-0.8
			c3-4,5.5-8.7,7.5-14.1c1.5-4.1-9.6-2.8-11.1,1.2c-15.1,41.5-68.8,28.6-97.7,9.9c16.5-9.9,32.9-19.8,49.4-29.8
			c2.1-1.3,2.6-3.7,0.7-5.3c-2.1-1.8-5.9-0.4-7.9,0.8c-29.4,17.7-58.9,35.5-88.3,53.2c-4.4,2.6-0.6,6.1,3,6
			c10.5-0.4,22.7,12.5,24,22.3c1.6,12.4-11.8,22.3-22.4,25.5c-8.4,2.5-18.1,1.5-24-5.4c-8.5-9.9-5.7-24.8-2.2-36.1
			c1.5-4.8-9.8-3.5-11.1,1c-0.5,1.8-1,3.6-1.5,5.4c-0.5,0.4-0.9,0.8-1.1,1.2c-8.9,19.5-29.6,45.9-54.4,40.3
			c-9.3-2.1-16.2-9-19.1-17.9c-3.3-10.1-3.2-21.6,7.6-26.7c13.5-6.4,30.2-7.3,44.7-10.7c0.8-0.2,7.7-3.7,3.9-4.5
			c-15.7-3.3-63-19.8-45.7-43.3c10.9-14.7,28.6-19.2,45.1-12c11.9,5.2,23.1,15.8,26.3,28.7c0.2,0.7,1,1.1,2.1,1.2
			c-1.8,0.7-3.5,1.4-5.3,2.1c-5.9,2.4-11.7,4.7-17.6,7.1c-2,0.8-4.1,3.1-2.7,5.2c1.4,2.2,5.5,1.3,7.4,0.6
			c41.6-16.7,83.2-33.4,124.8-50.1c5.9-2.4,11.7-4.7,17.6-7.1c2-0.8,4.1-3.1,2.7-5.2c-1.4-2.2-5.5-1.3-7.4-0.6
			c-22.6,9.1-45.3,18.2-67.9,27.3c-12.5-18.1-19.7-40.5-8.3-61c7.9-14.3,22.7-24.6,38.1-29.8c-0.3,9,1.6,18.1,4.9,26.8
			c1.9,5,12.8,1.9,11-3c-5.9-15.6-7.4-32.2,1.8-46.9c7-11.1,18-18.9,28.3-26.7c5.9-4.5-3-8.3-7.3-5c-11.7,8.9-23.7,17.8-31.5,30.5
			c-0.7,1.1-1.3,2.3-1.9,3.4c-8-6.8-14.2-15.6-15.1-26.5c-1-11.8,4.2-23.3,10.8-32.8c13.8-19.6,37.4-37.4,61.4-41.6
			c0.1,0,0.1,0,0.2,0c4.7,6.2,9.3,12.4,14,18.6c2.4,3.2,13.1-0.7,10.2-4.4c-21.2-28.2-42.5-56.4-63.7-84.6
			c-2.4-3.2-13.1,0.7-10.2,4.4c3,3.9,5.9,7.9,8.9,11.8c-0.3,0.2-0.6,0.3-0.9,0.6c-13.4,10.2-39.4,21.3-49.6,0.6
			c-3-6-2.6-13.3,1.3-18.8c6.1-8.6,17.8-10.5,27.5-11.1c3-0.2,7.7-3,5.5-6.5c-6.9-11.2-11-28.2-3.5-40c6.5-10.3,22.1-16.2,33.9-15
			c9,0.9,15.1,7.7,17.9,15.9c2.1,6.5,3.5,15.6,0.8,22c-2.6,6.1,8.2,5.1,10.5,1.3c5.2-8.5,21.2-32.4,33.4-22.2
			c14.7,12.4-0.3,31.9-10.6,40.6c-1.5,1.2-2.6,3.1-1.4,5c2,3,3.3,6.9,2.4,10.5c-1.2,4.9-4.6,4.2-8.8,3.3c-0.8-0.2-1.6-0.2-2.4,0
			c-1.1-2.5-2.2-5-3.4-7.5c-2.1-4.6-13-1.3-11,3c12.7,28.2,25.5,56.4,38.2,84.6c2.1,4.6,13,1.3,11-3c-6.6-14.7-13.2-29.3-19.9-44
			c1.9-0.2,3.7-0.9,4.7-2.1c30.7-38.8,91.4-40.8,129.5-12.6c-5,3.3-9.9,6.8-14.6,10.5c-1.9,1.5-1,3.1,1,3.6c2.4,0.7,5.9-0.6,7.8-2.1
			c4.2-3.3,8.5-6.5,13-9.4c2.1-0.5,4.2-1.7,5-3.1c8.4-5,17.3-9.2,26.8-11.7c21.6-5.8,43-1.3,62.3,9.5c3,1.6,13.1-2.7,8.8-5.1
			c-6.3-3.5-12.8-6.3-19.4-8.4c0.2-0.1,0.3-0.3,0.5-0.4c16.7-19,40.8-26.7,65.6-24.3c19.8,1.9,42.6,10.1,54.5,27.1
			c4.6,6.6,6.3,14.2,4.5,21.9c-9.9-2.3-20.3-1.9-30.3-0.1c-2,0.3-6.1,1.4-6.2,4c-0.1,2.5,2.9,3.2,4.9,2.9
			c10.4-1.8,21.1-2.2,31.1,1.6c13.1,5.1,21.7,16.4,27.1,29c1.8,4.3,12.7,1,11-3c-1.9-4.6-4.3-8.9-7-12.9c2.3-0.2,5-1.2,6.5-2.8
			c13.3-13.8,37.1-10.2,53.1-3.9c21.9,8.7,38.2,27,41.5,50.6c0.1,0.4,0.4,0.7,0.9,1c-12.6,5.1-25.1,10.3-37.7,15.4
			c-6.8,2.8-13.6,5.6-20.4,8.3c-2.2,0.9-4,3.6-2.6,5.9c1.5,2.4,5.4,1.8,7.5,0.9c47.1-19.2,94.2-38.5,141.3-57.7
			c6.8-2.8,13.6-5.6,20.4-8.3c2.2-0.9,4-3.6,2.6-5.9c-1.5-2.4-5.4-1.8-7.5-0.9c-2.6,1-5.1,2.1-7.7,3.1c0.3-0.9,0-1.8-1.1-2.6
			c-26-19.5,2.3-52.7,28.6-45.9c17.1,4.4,24.9,21.6,21,38.2c-1.3,5.3,9.2,1.7,10.7-0.3c11-14.4,41.5-25.7,49.2-2.3
			C989.3,219.5,987.9,231.7,977.7,238.3z"/>
		<g>
			<g>
				<path d="M150.2,155.1c-8.3,10.8-10.2,23.1-4.5,35.7c1.7,3.7,15.7-1.1,14.5-3.9c-5-11.2-4.4-22.9,3.2-32.7
					c1.9-2.5-1.7-2.7-3.5-2.6C157.1,151.7,152,152.7,150.2,155.1L150.2,155.1z"/>
			</g>
		</g>
		<g>
			<g>
				<path d="M775.1,197.8c-12.4-8.8-26.5-15.2-41.8-16.4c-20.4-1.6-40.6,5.8-57.1,17.6c-2.3,1.6-1.8,3.1,0.9,3.4
					c3.1,0.4,7.7-0.9,10.2-2.7c12.6-9.1,26.3-14.3,41.9-11.4c11.8,2.2,22.5,7.6,32.2,14.6c2.3,1.7,7,0.2,9.4-0.7
					C771.7,201.8,777.3,199.3,775.1,197.8L775.1,197.8z"/>
			</g>
		</g>
		<g>
			<g>
				<path d="M933.1,159.4c-21.9-12.7-47-10.1-68.3,2.8c-2.5,1.5-1.6,3.1,0.9,3.4c3.4,0.4,7.4-1,10.2-2.7c14.3-8.6,29.5-6.6,43.5,1.6
					c2.6,1.5,6.8,0.3,9.4-0.7C929.6,163.4,935.4,160.7,933.1,159.4L933.1,159.4z"/>
			</g>
		</g>
		<g>
			<g>
				<path d="M23,442.4c-8.3,10.9-10,23.7-4.3,36.3c2.2,4.9,16.4,0.4,14.5-3.9c-5.1-11.3-4.2-22.3,3.3-32.1c2.1-2.8-1.8-4.1-3.9-4.2
					C29.2,438.3,25,439.7,23,442.4L23,442.4z"/>
			</g>
		</g>
	</g>
</g>
<g id="Layer_3" display="none">
	<g display="inline">
		<g>
			<polygon fill="#FFFFFF" points="712.2,454 832.1,621.7 648.1,478.3 639.2,520.9 593.6,501.3 555.9,555.3 507.3,504.7 
				474.8,573.7 442.5,495.6 363.1,557.8 357.4,484.2 277.9,504.8 277.9,420.6 192.7,446.5 232.7,375.9 146.7,356.5 227.9,317.8 
				182.6,262 256.2,249.8 256.1,144.3 365.4,191.1 392.7,116.8 450.7,175.9 494.2,78.3 537.9,188.4 574.6,136.5 605,184.8 
				703.5,120.7 699.2,243.1 847.6,201.9 762.7,292.8 847.6,348.5 760.8,386.6 791,454 			"/>
			<g>
				<path d="M709.5,455.1c13.5,18.9,27,37.8,40.5,56.7c21.5,30.1,43,60.3,64.6,90.4c4.9,6.9,9.8,13.8,14.8,20.7
					c1.8-0.7,3.6-1.5,5.4-2.2c-20.7-16.1-41.4-32.3-62.1-48.4c-33-25.7-66-51.5-99.1-77.2c-7.6-5.9-15.2-11.8-22.8-17.8
					c-1.3-1-5.2-0.4-5.6,1.5c-3,14.2-5.9,28.4-8.9,42.6c1.7-0.6,3.5-1.2,5.2-1.8c-15.2-6.5-30.4-13.1-45.6-19.6
					c-1.5-0.6-4.1,0-5,1.3c-12.6,18-25.2,36-37.8,54c1.8-0.4,3.6-0.7,5.4-1.1c-16.2-16.8-32.3-33.7-48.5-50.5
					c-1.4-1.4-4.9,0-5.6,1.5c-10.9,23-21.7,46-32.6,69c1.9-0.4,3.9-0.8,5.8-1.2c-10.8-26-21.5-52.1-32.3-78.1
					c-0.7-1.8-4.2-0.5-5.2,0.3c-23.2,18.1-46.3,36.3-69.5,54.4c-3.3,2.6-6.6,5.2-9.9,7.7c1.7-0.1,3.5-0.2,5.2-0.3
					c-1.9-24.5-3.8-49.1-5.7-73.6c-0.1-1.2-2.7-0.8-3.3-0.6c-26.5,6.9-53,13.7-79.5,20.6c1.1,0.2,2.2,0.4,3.3,0.6
					c0-28.1,0-56.1,0-84.2c0-1.2-2.8-0.8-3.3-0.6c-24.9,7.6-49.8,15.1-74.6,22.7c-3.5,1.1-7,2.1-10.6,3.2c1,0.5,2,0.9,3.1,1.4
					c13.3-23.5,26.7-47,40-70.5c0.5-0.9,0-1.4-0.9-1.6c-25.1-5.7-50.2-11.3-75.2-17c-3.6-0.8-7.2-1.6-10.8-2.4
					c-0.2,0.9-0.4,1.8-0.7,2.7c23.7-11.3,47.4-22.6,71.2-33.9c3.4-1.6,6.7-3.2,10.1-4.8c0.7-0.3,2.4-1.2,1.6-2.3
					c-15.1-18.6-30.2-37.2-45.3-55.8c-1,0.9-2.1,1.8-3.1,2.7c24.5-4,49.1-8.1,73.6-12.1c1.2-0.2,3.3-0.8,3.3-2.3
					c0-30.8-0.1-61.6-0.1-92.4c0-4.4,0-8.7,0-13.1c-1.7,0.7-3.5,1.4-5.2,2.1c31.9,13.7,63.8,27.3,95.6,41c4.5,1.9,9.1,3.9,13.6,5.8
					c1.5,0.7,4.6,0,5.2-1.8c9.1-24.8,18.2-49.6,27.3-74.4c-1.9,0.5-3.7,1-5.6,1.5c19.3,19.7,38.7,39.4,58,59.2
					c1.4,1.4,4.9,0,5.6-1.5c12.7-28.5,25.4-57,38.1-85.5c1.8-4.1,3.6-8.1,5.4-12.2c-1.9,0.4-3.9,0.8-5.8,1.2
					c12.8,32.2,25.6,64.4,38.3,96.6c1.8,4.5,3.6,9,5.4,13.6c0.8,1.9,4.8,0.4,5.6-0.7c12.2-17.3,24.4-34.6,36.7-51.9
					c-1.8,0.4-3.6,0.7-5.4,1.1c10.1,16.1,20.3,32.2,30.4,48.2c0.7,1.2,3.7,0.2,4.5-0.3c28.8-18.7,57.5-37.4,86.3-56.2
					c4.1-2.7,8.2-5.3,12.2-8c-1.6-0.1-3.1-0.3-4.7-0.4c-1.3,35.7-2.5,71.5-3.8,107.2c-0.2,5.1-0.4,10.1-0.5,15.2
					c-0.1,1.6,2.3,1.3,3.3,1c43.4-12,86.7-24.1,130.1-36.1c6.1-1.7,12.2-3.4,18.4-5.1c-1-0.5-2-0.9-3.1-1.4
					c-24.8,26.6-49.7,53.1-74.5,79.7c-3.5,3.7-7,7.5-10.5,11.2c-0.5,0.6-0.1,1.1,0.4,1.4c24.7,16.2,49.5,32.5,74.2,48.7
					c3.6,2.3,7.1,4.7,10.7,7c0.4-0.8,0.8-1.7,1.2-2.5c-25.4,11.1-50.7,22.2-76.1,33.3c-3.6,1.6-7.2,3.2-10.8,4.7
					c-0.5,0.2-2.2,1.1-1.8,1.9c10.1,22.5,20.2,44.9,30.3,67.4c1.3-0.8,2.7-1.6,4-2.4c-26.3,0-52.5,0-78.8,0c-2.1,0-6.2,3.2-2.3,3.2
					c26.3,0,52.5,0,78.8,0c0.8,0,4.7-0.8,4-2.4c-10.1-22.5-20.2-44.9-30.3-67.4c-0.6,0.6-1.2,1.3-1.8,1.9
					c25.4-11.1,50.7-22.2,76.1-33.3c3.6-1.6,7.2-3.2,10.8-4.7c1-0.4,2.6-1.6,1.2-2.5c-24.7-16.2-49.5-32.5-74.2-48.7
					c-3.6-2.3-7.1-4.7-10.7-7c0.1,0.5,0.3,0.9,0.4,1.4c24.8-26.6,49.7-53.1,74.5-79.7c3.5-3.7,7-7.5,10.5-11.2
					c1.5-1.6-2.4-1.6-3.1-1.4c-43.4,12-86.7,24.1-130.1,36.1c-6.1,1.7-12.2,3.4-18.4,5.1c1.1,0.3,2.2,0.7,3.3,1
					c1.3-35.7,2.5-71.5,3.8-107.2c0.2-5.1,0.4-10.1,0.5-15.2c0.1-2.1-3.7-1.1-4.7-0.4c-28.8,18.7-57.5,37.4-86.3,56.2
					c-4.1,2.7-8.2,5.3-12.2,8c1.5-0.1,3-0.2,4.5-0.3c-10.1-16.1-20.3-32.2-30.4-48.2c-0.9-1.5-4.6,0-5.4,1.1
					c-12.2,17.3-24.4,34.6-36.7,51.9c1.9-0.2,3.7-0.5,5.6-0.7c-12.8-32.2-25.6-64.4-38.3-96.6c-1.8-4.5-3.6-9-5.4-13.6
					c-0.8-2.1-5.2-0.3-5.8,1.2c-12.7,28.5-25.4,57-38.1,85.5c-1.8,4.1-3.6,8.1-5.4,12.2c1.9-0.5,3.7-1,5.6-1.5
					c-19.3-19.7-38.7-39.4-58-59.2c-1.3-1.3-5-0.1-5.6,1.5c-9.1,24.8-18.2,49.6-27.3,74.4c1.7-0.6,3.5-1.2,5.2-1.8
					c-31.9-13.7-63.8-27.3-95.6-41c-4.5-1.9-9.1-3.9-13.6-5.8c-1.5-0.6-5.2,0.1-5.2,2.1c0,30.8,0.1,61.6,0.1,92.4
					c0,4.4,0,8.7,0,13.1c1.1-0.8,2.2-1.6,3.3-2.3c-24.5,4-49.1,8.1-73.6,12.1c-0.9,0.1-4.3,1.2-3.1,2.7
					c15.1,18.6,30.2,37.2,45.3,55.8c0.5-0.8,1-1.5,1.6-2.3c-23.7,11.3-47.4,22.6-71.2,33.9c-3.4,1.6-6.7,3.2-10.1,4.8
					c-1.2,0.6-2.9,2.2-0.7,2.7c25.1,5.7,50.2,11.3,75.2,17c3.6,0.8,7.2,1.6,10.8,2.4c-0.3-0.5-0.6-1-0.9-1.6
					c-13.3,23.5-26.7,47-40,70.5c-1,1.8,2.1,1.7,3.1,1.4c24.9-7.6,49.8-15.1,74.6-22.7c3.5-1.1,7-2.1,10.6-3.2
					c-1.1-0.2-2.2-0.4-3.3-0.6c0,28.1,0,56.1,0,84.2c0,1.2,2.8,0.7,3.3,0.6c26.5-6.9,53-13.7,79.5-20.6c-1.1-0.2-2.2-0.4-3.3-0.6
					c1.9,24.5,3.8,49.1,5.7,73.6c0.2,1.9,4.5,0.2,5.2-0.3c23.2-18.1,46.3-36.3,69.5-54.4c3.3-2.6,6.6-5.2,9.9-7.7
					c-1.7,0.1-3.5,0.2-5.2,0.3c10.8,26,21.5,52.1,32.3,78.1c0.9,2.1,5.1,0.3,5.8-1.2c10.9-23,21.7-46,32.6-69
					c-1.9,0.5-3.7,1-5.6,1.5c16.2,16.8,32.3,33.7,48.5,50.5c1.2,1.3,4.5,0.2,5.4-1.1c12.6-18,25.2-36,37.8-54
					c-1.7,0.4-3.3,0.9-5,1.3c15.2,6.5,30.4,13.1,45.6,19.6c1.3,0.6,4.8,0,5.2-1.8c3-14.2,5.9-28.4,8.9-42.6c-1.9,0.5-3.7,1-5.6,1.5
					c20.7,16.1,41.4,32.3,62.1,48.4c33,25.7,66,51.5,99.1,77.2c7.6,5.9,15.2,11.8,22.8,17.8c1.3,1,6.8-0.2,5.4-2.2
					c-13.5-18.9-27-37.8-40.5-56.7c-21.5-30.1-43-60.3-64.6-90.4c-4.9-6.9-9.8-13.8-14.8-20.7C713.8,451.3,708.2,453.2,709.5,455.1z
					"/>
			</g>
		</g>
		<g>
			<g>
				<path d="M354.4,169.7c-29.9-14.1-59.9-28.3-89.8-42.4c-4.3-2-8.6-4.1-13-6.1c-2.3-1.1-6.7,2.2-3.4,3.8
					c29.9,14.1,59.9,28.3,89.8,42.4c4.3,2,8.6,4.1,13,6.1C353.4,174.5,357.7,171.2,354.4,169.7L354.4,169.7z"/>
			</g>
		</g>
		<g>
			<g>
				<path d="M158.6,378.4c14.6,5.2,29.2,10.3,43.8,15.5c-0.3-0.7-0.7-1.3-1-2c-5.9,9.5-11.8,19.1-17.7,28.6
					c-1.6,2.6,4.3,2.4,5.5,0.4c5.9-9.5,11.8-19.1,17.7-28.6c0.6-0.9-0.2-1.7-1-2c-14.6-5.2-29.2-10.3-43.8-15.5
					C159.9,374,155.3,377.2,158.6,378.4L158.6,378.4z"/>
			</g>
		</g>
		<g>
			<g>
				<path d="M522.9,551.3c10.5,8.5,21.1,17,31.6,25.5c1.6,1.3,4.2,0.5,5.4-1c10.7-13.6,21.4-27.1,32.2-40.7c1.7-2.2-4.2-1.9-5.4-0.3
					c-10.7,13.6-21.4,27.1-32.2,40.7c1.8-0.3,3.6-0.7,5.4-1c-10.5-8.5-21.1-17-31.6-25.5C526.5,547.5,521.1,549.8,522.9,551.3
					L522.9,551.3z"/>
			</g>
		</g>
		<g>
			<g>
				<path d="M793.9,286c23.7-26.4,47.4-52.7,71-79.1c3.3-3.7,6.7-7.4,10-11.2c1.5-1.6-4.2-1.1-5.3,0.1c-23.7,26.4-47.4,52.7-71,79.1
					c-3.3,3.7-6.7,7.4-10,11.2C787.1,287.7,792.8,287.2,793.9,286L793.9,286z"/>
			</g>
		</g>
	</g>
</g>
<g id="Layer_5">
	<g>
		<path fill="#FFFFFF" d="M790.4,518.7c-50.5-28.5-200.7-104.3-211.6,9.7c-53.3-51.3-98.4-78.4-155.7,12.8
			c-6.8-47-27.3-121.1-213.1-34.2c50.5-74.1,34.8-115.9-30.8-130.1c88.8-35.6,79.2-65.6,24.6-109.7c62.8-7.1,97.7-39.5,47.2-129.2
			c98.4,61.3,157.7,148.2,269.4,7.1c32.5,64.1,91.2,82.7,199.1,18.5c-20.6,54.1-19.2,105,106.5,69.8
			c-75.1,45.6-90.2,105.5,16.4,106.2C782.3,357.4,685.2,431.7,790.4,518.7z"/>
		<g>
			<path d="M792.7,517.3c-29.7-16.7-60.8-31.8-93.5-41.8c-30.3-9.4-70.1-17.5-98.1,2.5c-16.5,11.8-23.2,31.4-25.2,50.8
				c1.9-0.5,3.7-1,5.6-1.5c-18.1-17.4-38.3-36.7-62.8-44.5c-21.6-6.9-42.9-0.9-60.3,12.9c-15.5,12.4-27.5,28.9-38,45.5
				c1.9-0.2,3.7-0.5,5.6-0.7c-3-20.6-8.4-42.5-24.2-57.3c-24.2-22.7-61.7-19.8-91.7-13.6c-35.1,7.3-68.9,21.2-101.3,36.3
				c1.3,0.4,2.6,0.8,3.8,1.2c14.5-21.4,29.7-46.9,30.1-73.5c0.3-19-9.3-34.5-25.2-44.5c-11.1-6.9-23.9-10.9-36.6-13.7
				c-0.2,0.9-0.4,1.8-0.6,2.7c14.4-5.8,28.7-12.2,41.7-20.6c8.2-5.4,16.6-11.8,21.8-20.3c9-14.9,2.4-30.4-7.6-42.8
				c-8.6-10.6-19.1-19.7-29.7-28.3c-1,0.9-2.1,1.8-3.1,2.7c20.7-2.4,43.6-7.4,59.3-22.1c15.7-14.7,17.6-36.1,13.2-56.2
				c-4.1-18.8-12.7-36.5-22-53.3c-1.7,0.7-3.5,1.4-5.2,2.2c35.7,22.3,67.9,51,105.6,69.8c15.2,7.6,31.7,13.1,48.8,13.6
				c18.5,0.5,36.5-5.2,52.4-14.4c26.9-15.5,48.5-39.2,67.6-63.3c-1.9,0.2-3.7,0.5-5.6,0.7c11.6,22.8,28.6,43.6,53.1,53.1
				c27.4,10.6,58,5.9,85.1-3.3c23-7.8,44.8-18.9,65.6-31.3c-1.6-0.1-3.1-0.3-4.7-0.4c-6.7,17.5-14.1,39.6-7.7,58.3
				c7.1,20.8,31.1,24.8,50.3,24.4c22.8-0.5,45.4-5.7,67.2-11.8c-0.7-0.7-1.4-1.5-2.2-2.2c-22.3,13.6-47.7,31.8-58,56.9
				c-3.2,7.9-4.4,16.9-0.8,24.9c4.1,9.1,12.9,14.9,21.8,18.5c16.9,6.9,36,8.1,54.1,8.3c0.3-1,0.5-2,0.8-3
				c-50.9,15.3-118,63.9-97.5,125.2c7.7,22.9,25,41.3,43.2,56.5c1.5,1.3,6.9-1,5.4-2.2c-26.8-22.3-53-54.4-45-91.6
				c6.1-28.4,29-50.5,52.7-65.5c13-8.3,27.1-15,41.9-19.5c1.7-0.5,4-3,0.8-3c-16.2-0.2-33-1.2-48.4-6.6c-9-3.1-18.4-8.1-23.1-16.8
				c-9.6-17.4,4.8-37.5,16.4-49.7c11.5-12.1,25.1-22,39.3-30.6c2.7-1.7-0.4-2.7-2.2-2.2c-19.4,5.4-39.4,10.1-59.6,11.2
				c-11.7,0.6-24.4,0.2-35.2-4.9c-16.4-7.7-19.9-25.2-17.7-41.7c1.5-11.5,5.1-22.6,9.2-33.4c0.8-2-4.1-0.8-4.7-0.4
				c-48.4,28.7-120.8,62.3-169.6,16.1c-10.4-9.8-18.4-21.9-24.9-34.6c-1-1.9-4.6-0.5-5.6,0.7c-26.8,33.7-63.9,74.9-110.9,74.5
				c-35.8-0.3-67.7-23.4-95.7-43.2c-19.1-13.5-38-27.4-57.8-39.8c-1-0.6-6.1,0.5-5.2,2.2c12.9,23.1,27,51.3,23.8,78.6
				c-2.2,18.9-14.6,32.4-31.8,39.7c-11.4,4.8-23.7,7.1-35.9,8.5c-0.6,0.1-4.6,1.5-3.1,2.7c14.7,12,33.1,26.2,39.6,44.9
				c6,17-5.2,30.6-18.5,40.1c-13.5,9.6-28.9,16.4-44.2,22.5c-1.2,0.5-2.8,2.2-0.6,2.7c19.3,4.3,40.6,11.8,52,29
				c11.1,16.6,8.1,37.6,1.6,55.4c-5.8,15.7-14.4,30.3-23.8,44.1c-1.4,2.1,3,1.6,3.8,1.2c29-13.5,58.9-25.9,90.1-33.6
				c19.1-4.7,39.3-7.9,59-5.2c24.4,3.4,43.2,17.6,52.2,40.6c4,10.3,6.2,21.2,7.8,32.1c0.3,2,5,0.2,5.6-0.7
				c14.2-22.4,33.3-50.1,60.7-57c20.6-5.2,40.8,5.2,57,17.1c11.6,8.5,22.3,18.3,32.6,28.2c1.1,1.1,5.4,0.3,5.6-1.5
				c1.7-16.9,6.8-34.6,20.1-46.1c11.4-9.8,26.6-12.8,41.2-12.8c35.1,0.2,70,14,101.3,28.5c14.9,6.9,29.5,14.4,43.7,22.4
				C789.6,520.9,795,518.6,792.7,517.3z"/>
		</g>
	</g>
	<g>
		<g>
			<g>
				<path d="M228.1,154.2c0,5.4-0.8,12.7,2.6,17.3c3.7,5.1,11.3,4.3,16.8,3.6c2.6-0.3,5-3.2,0.9-2.7c-5.2,0.7-11.1,0.6-13.2-5
					c-1.7-4.6-1.3-10-1.3-14.8C233.9,151.3,228.1,152.2,228.1,154.2L228.1,154.2z"/>
			</g>
		</g>
		<g>
			<g>
				<path d="M201.6,182.3c4.7-0.5,9.6-2.1,12.9-5.5c5.4-5.6,5.1-13.7,3.9-20.8c-0.4-2.5-6.3-1-5.8,1.6c1.6,9,0.5,19.8-10.4,20.8
					C199.1,178.7,197.6,182.7,201.6,182.3L201.6,182.3z"/>
			</g>
		</g>
		<g>
			<g>
				<path d="M199.6,198.3c3.4-1.5,7-3.1,10.7-3.4c6.1-0.5,8.2,4.2,8.7,9.5c0.2,2.1,6,0.8,5.8-1.6c-1.4-15.9-17.3-11.7-27.6-7.3
					C193.5,197.2,196.8,199.5,199.6,198.3L199.6,198.3z"/>
			</g>
		</g>
		<g>
			<g>
				<path d="M238.2,208.3c-0.9-8.1-1.8-22.6,9.5-23.2c3.1-0.1,4.6-4.1,0.6-3.9c-15.7,0.7-17.3,16-15.9,28.6
					C232.6,212.2,238.4,210.9,238.2,208.3L238.2,208.3z"/>
			</g>
		</g>
	</g>
	<g>
		<g>
			<g>
				<path d="M818.3,430.2c-6,1.1-13.1,1.9-18.2,5.7c-5.4,4.2-4.1,11-2.3,16.7c0.5,1.7,6.3,0,5.8-1.6c-1.3-4.2-3.3-10.6,0.5-14.2
					c3.2-3,9.1-3.3,13.2-4C819.9,432.3,822.4,429.4,818.3,430.2L818.3,430.2z"/>
			</g>
		</g>
		<g>
			<g>
				<path d="M783.2,408.5c4,14.2,17.9,14.3,29.8,9.9c3.7-1.4,0.4-4.2-2.5-3.1c-9.5,3.5-18.5,2.1-21.5-8.4
					C788.3,404.5,782.5,406.1,783.2,408.5L783.2,408.5z"/>
			</g>
		</g>
		<g>
			<g>
				<path d="M766.5,408.4c4.3,6.5,11.5,18.3-0.1,21.5c-3.5,1-2.7,4.2,0.9,3.2c5.9-1.7,11.8-5.2,11.4-12.1c-0.4-5.5-3.8-10.5-6.8-15
					C770.6,404.3,765,406.3,766.5,408.4L766.5,408.4z"/>
			</g>
		</g>
		<g>
			<g>
				<path d="M764.1,446.6c9.4-2.8,21.8-4.5,24.6,7.7c0.3,1.3,6.1-0.1,5.8-1.6c-3.3-14.4-20.3-11.2-30.9-8
					C760.3,445.7,760.7,447.7,764.1,446.6L764.1,446.6z"/>
			</g>
		</g>
	</g>
	<g>
		<g>
			<g>
				<path d="M369.5,505.7c-6,1.1-13.1,1.9-18.2,5.7c-5.4,4.2-4.1,11-2.3,16.7c0.5,1.7,6.3,0,5.8-1.6c-1.3-4.2-3.3-10.6,0.5-14.2
					c3.2-3,9.1-3.3,13.2-4C371.1,507.9,373.6,505,369.5,505.7L369.5,505.7z"/>
			</g>
		</g>
		<g>
			<g>
				<path d="M334.4,484.1c4,14.2,17.9,14.3,29.8,9.9c3.7-1.4,0.4-4.2-2.5-3.1c-9.5,3.5-18.5,2.1-21.5-8.4
					C339.5,480.1,333.7,481.6,334.4,484.1L334.4,484.1z"/>
			</g>
		</g>
		<g>
			<g>
				<path d="M317.7,484c4.3,6.5,11.5,18.3-0.1,21.5c-3.5,1-2.7,4.2,0.9,3.2c5.9-1.7,11.8-5.2,11.4-12.1c-0.4-5.5-3.8-10.5-6.8-15
					C321.8,479.8,316.2,481.8,317.7,484L317.7,484z"/>
			</g>
		</g>
		<g>
			<g>
				<path d="M315.3,522.2c9.4-2.8,21.8-4.5,24.6,7.7c0.3,1.3,6.1-0.1,5.8-1.6c-3.3-14.4-20.3-11.2-30.9-8
					C311.5,521.3,311.9,523.2,315.3,522.2L315.3,522.2z"/>
			</g>
		</g>
	</g>
</g>
<g id="Layer_2" display="none">
	<g display="inline">
		<g>
			<path fill="#FFFFFF" d="M214.5,191.5c20.1,17.3,72.6,35.3,82.4-27.6c12.2,33.3,52.5,58.3,78.6,22.3c14.7,12.6,39.7,36.4,48.8-9.1
				c6.6,20.6,38.6,50.1,48.8-7c8.8,36.7,44.8,59.7,80.2,20.3c16.1,22,58.5,39.9,77.9-12c13,30.9,53.8,46,77.9-14.5
				c12.3,47.9,53.7,45.9,79.1,35.3c-36.1,46-21.2,55.3,16.4,67.5c-34.2,16.7-39.5,42.6-12,61.1c-42.1,16.8-47.1,66.9-10.9,86.1
				c-41.4,7.4-23,50.2,10.8,70.3c-40.8-13.8-60.6-16.6-70.9,25.7c-20-38.7-84.5-37.5-101.6,4c-6.6-37.5-56.6-37.8-61.8-4.1
				c-15.2-33.5-54.6-22.9-65.3,35c-6.6-55.2-41.1-73.8-76.2-42.3c-29.1-22.8-74.5-22.8-73.2,26.5c-17.6-38.9-57.4-37.8-86.2-15.6
				c9.8-45.2-0.6-80.1-54.5-71.4c47.5-23.1,51.4-77.3,21.6-91.1c40.5-11,43-55.6-1.1-67C251.1,260,232,219.1,214.5,191.5z"/>
			<g>
				<path d="M211.8,192.5c20.2,17.2,56.1,25.4,75.4,2.4c7.5-8.9,10.8-20.5,12.6-31.8c-1.9,0.5-3.9,1-5.8,1.6
					c6.5,17.2,20.3,33.5,38.5,38.8c17.9,5.2,35.2-3.4,45.9-17.8c-1.9,0.5-3.7,1-5.6,1.5c8.2,7.1,17.9,17,29.4,17.7
					c16.3,1,22.2-15,25-28.3c-1.9,0.4-3.8,0.9-5.8,1.3c3.6,11.1,13.3,24.6,25.7,26.4c19.5,2.8,26.1-20,28.8-34.7
					c-1.9,0.4-3.8,0.9-5.8,1.3c4.3,17.4,15.5,35.2,33.9,40c19.8,5.2,39-6.7,51.8-20.8c-1.8,0.3-3.7,0.7-5.5,1
					c9.4,12.7,24.8,22.3,40.9,22.1c21.6-0.2,35.5-16.5,42.7-35.4c-1.9,0.4-3.8,0.9-5.8,1.3c6.5,15.1,20.4,28.2,37.7,27.3
					c23.8-1.2,37.8-23.2,45.9-43.1c-1.9,0.4-3.8,0.9-5.8,1.3c5.1,19.2,17,35.7,37.1,40.4c15.5,3.6,32.1,0.4,46.6-5.5
					c-1.5,0.1-3,0.1-4.5,0.2c-6.9,8.9-14,18.2-18.2,28.8c-2.3,5.7-3.7,12.4-1.2,18.2c5.5,12.8,24.4,17.2,36.3,21
					c0.2-0.5,0.5-1,0.7-1.4c-12.4,6.2-27,15.6-30.2,30.2c-3,13.7,6.6,24.9,17.2,32.2c0.4-0.4,0.7-0.9,1.1-1.3
					c-17.9,7.3-32.9,22-35.8,41.7c-2.9,19.1,7.1,36.6,23.8,45.7c1.1-0.7,2.2-1.3,3.3-2c-15.3,2.9-29.8,11.8-26.8,29.4
					c3.1,18.3,19.1,33.7,34.4,42.9c1.7-0.7,3.4-1.4,5.1-2.1c-15.4-5.2-33.4-12.3-49.9-7.9c-16.3,4.4-22.5,20.1-26.3,35.1
					c1.9-0.4,3.8-0.9,5.8-1.3c-21.6-40.6-89.5-36.7-107.3,5.3c1.9-0.4,3.8-0.9,5.8-1.3c-3.3-17.2-17.3-29.7-35.1-29.1
					c-16,0.5-29.7,10.3-32.5,26.5c1.9-0.5,3.9-1,5.8-1.6c-7-15-20.9-23.2-37.1-17.1c-21.2,8-30.1,33.1-34,53.4
					c1.9-0.4,3.8-0.9,5.8-1.3c-2.6-20.4-9.9-46.8-31-55.5c-17.9-7.3-37.4,2.4-50.7,14.2c1.8-0.4,3.6-0.8,5.4-1.2
					c-14.3-11-33.4-18-51.4-13.5c-7.7,1.9-14.8,5.7-19.6,12.1c-6.5,8.4-8,19.4-7.8,29.7c1.9-0.5,3.9-1,5.8-1.6
					c-8-17.3-22.6-30-42.2-31.3c-17.8-1.2-35.5,6.1-49.5,16.7c1.8-0.3,3.6-0.5,5.5-0.8c3.9-18.2,6.9-41.2-4.3-57.6
					c-11.6-17-34.2-17.1-52.6-14.3c0.4,0.5,0.7,0.9,1.1,1.4c19.8-9.9,36.7-27,40.9-49.4c3.1-16.7-2-35.2-18.2-43
					c-0.8,0.6-1.7,1.2-2.5,1.8c11.5-3.2,22.9-9.2,29.4-19.7c5.5-9,6-20.2,0.8-29.4c-2.7-4.8-6.8-8.9-11.3-12
					c-2.8-1.9-5.9-3.5-9.1-4.8c-1.5-0.6-3.1-1.2-4.7-1.7c-3.2-1-3.1-0.7-0.7-3.3c10.4-10.7,12.8-25.3,10.3-39.6
					c-3.1-18.1-12.2-34.8-21.8-50.2c-0.9-1.4-6.2,0.9-5.8,1.6c16.1,25.5,37.2,66.8,8.9,91.6c-0.4,0.4-0.3,0.7,0.2,0.9
					c15.2,4.1,30.9,14.4,31.8,31.6c0.9,16.9-13.4,29.2-28.5,33.5c-0.1,0-3.5,1.3-2.5,1.8c15.2,7.3,20.6,24.5,18.3,40.4
					c-3.3,22-19.4,39.8-38.8,49.4c-2.2,1.1-0.5,1.6,1.1,1.4c18.2-2.8,39.9-1.2,49.7,16.8c8.8,16.2,6.2,36.9,2.5,54.1
					c-0.3,1.6,4.9-0.4,5.5-0.8c13-9.8,29.2-16.3,45.6-13.2c16.5,3.1,28.2,15.1,35,29.9c0.6,1.2,5.8-0.2,5.8-1.6
					c-0.3-15.9,5.1-35.3,23.1-38.7c15.6-2.9,32.4,4.7,44.5,14c1.2,0.9,4.4-0.4,5.4-1.2c13.3-11.7,30.7-19.4,46.7-8.1
					c16,11.3,21.7,33,24,51.4c0.1,1.1,5.5-0.2,5.8-1.3c3.4-17.8,10.6-40.7,27.9-50c13.6-7.3,26.2,4.5,31.7,16.3
					c0.6,1.3,5.6-0.3,5.8-1.6c2.4-14.1,13.9-24.5,28.6-22.4c14.7,2.2,24.7,13.9,27.4,28.1c0.2,1.3,5.4-0.4,5.8-1.3
					c8.1-19.2,26.9-30.7,47.6-30.5c19.7,0.2,38.8,10,48.2,27.7c0.6,1.2,5.5-0.2,5.8-1.3c2.9-11.7,8-29.5,21.8-32.6
					c6.1-1.4,12.9-0.1,18.9,1.2c8.5,1.9,16.8,4.6,25,7.4c1.1,0.4,6-1.5,5.1-2.1c-13.9-8.4-27.2-21.1-32.6-36.8
					c-2-5.9-2.8-12.5-0.4-18.3c3.2-7.9,11-11.6,18.9-13.1c0.3,0,4.4-1.4,3.3-2c-15.5-8.5-25.3-24.3-23.8-42.2
					c1.6-19.7,16-35.3,33.7-42.6c0.3-0.1,1.7-0.9,1.1-1.3c-9.7-6.7-19-16.8-17.3-29.5c2-14.5,16.1-24.3,28.2-30.3
					c0.5-0.3,1.9-1,0.7-1.4c-11.5-3.7-30.6-8.2-35.5-21c-2.3-5.9-0.6-12.5,1.8-18.1c4.3-10.1,11.1-19.1,17.8-27.7
					c0.8-1-4.2,0.1-4.5,0.2c-13.2,5.4-28.5,7.4-42.3,2.9c-17.7-5.7-27.7-21.5-32.3-38.7c-0.3-1.3-5.4,0.3-5.8,1.3
					c-6.5,16.1-19.5,41.6-40.5,39.7c-14.8-1.3-26.1-13.7-31.6-26.6c-0.5-1.3-5.4,0.3-5.8,1.3c-6.3,16.3-18.2,34.4-38.1,31.8
					c-13.5-1.7-26.1-10.4-34.1-21.1c-0.9-1.2-4.7,0.2-5.5,1c-12.7,13.9-30.4,25-49,15.3c-13.9-7.2-22.1-21.9-25.7-36.6
					c-0.3-1.2-5.6,0.2-5.8,1.3c-1.9,10.1-7.2,37.1-22.9,30.1c-9.7-4.3-16.9-14.7-20.1-24.5c-0.4-1.2-5.5,0.2-5.8,1.3
					c-1.5,7.1-3.4,14.9-8,20.7c-3.5,4.4-7.2,5-12.4,3.1c-8.8-3.2-16-10.2-22.9-16.2c-1.1-1-4.8,0.5-5.6,1.5
					c-5.3,7.2-12.6,14.2-21.8,15.7c-7.6,1.2-15.4-1-22-4.5c-13.6-7.3-23.7-20.4-29.1-34.7c-0.5-1.3-5.6,0.3-5.8,1.6
					c-3.1,19.2-12.8,41.9-35.4,42.1c-14.8,0.1-30.1-6.7-41.3-16.2C216.1,189.6,211,191.8,211.8,192.5z"/>
			</g>
		</g>
		<g>
			<g>
				<g>
					<path d="M764.7,124.4c0,5.4-0.8,12.7,2.6,17.3c3.7,5.1,11.3,4.3,16.8,3.6c2.6-0.3,5-3.2,0.9-2.7c-5.2,0.7-11.1,0.6-13.2-5
						c-1.7-4.6-1.3-10-1.3-14.8C770.5,121.5,764.7,122.4,764.7,124.4L764.7,124.4z"/>
				</g>
			</g>
			<g>
				<g>
					<path d="M738.2,152.5c4.7-0.5,9.6-2.1,12.9-5.5c5.4-5.6,5.1-13.7,3.9-20.8c-0.4-2.5-6.3-1-5.8,1.6c1.6,9,0.5,19.8-10.4,20.8
						C735.7,148.9,734.2,152.9,738.2,152.5L738.2,152.5z"/>
				</g>
			</g>
			<g>
				<g>
					<path d="M736.2,168.5c3.4-1.5,7-3.1,10.7-3.4c6.1-0.5,8.2,4.2,8.7,9.5c0.2,2.1,6,0.8,5.8-1.6c-1.4-15.9-17.3-11.7-27.6-7.3
						C730.1,167.4,733.4,169.7,736.2,168.5L736.2,168.5z"/>
				</g>
			</g>
			<g>
				<g>
					<path d="M774.8,178.5c-0.9-8.1-1.8-22.6,9.5-23.2c3.1-0.1,4.6-4.1,0.6-3.9c-15.7,0.7-17.3,16-15.9,28.6
						C769.2,182.5,775,181.1,774.8,178.5L774.8,178.5z"/>
				</g>
			</g>
		</g>
		<g>
			<g>
				<g>
					<path d="M202.8,254.3c-4.8,2.8-11.2,5.7-14.2,10.7c-3.3,5.6,0.6,11.4,4,15.9c1,1.3,6.6-0.6,5.4-2.1c-2.9-3.9-6.7-9.3-3.8-14.3
						c2.5-4.2,8-6.6,12-9C209.6,253.5,204.4,253.3,202.8,254.3L202.8,254.3z"/>
				</g>
			</g>
			<g>
				<g>
					<path d="M164,244.4c8.5,11.8,22,8.1,31.8-0.1c3-2.5-1.7-4.1-3.8-2.4c-4.2,3.6-9.8,7.8-15.7,5.8c-3-1-5.2-3.3-7-5.8
						C167.9,240,162.3,242.1,164,244.4L164,244.4z"/>
				</g>
			</g>
			<g>
				<g>
					<path d="M148.2,249.9c6.9,5.2,16.8,13.8,6.4,21.2c-3.2,2.3,1.7,3.4,3.7,2c5.1-3.6,8.9-8.7,5.7-15c-2.4-4.8-7-8.1-11.2-11.2
						C151.1,245.7,145.8,248.1,148.2,249.9L148.2,249.9z"/>
				</g>
			</g>
			<g>
				<g>
					<path d="M160.7,286.6c8.8-6.2,19.5-3.5,25.2,5.4c1,1.6,6.4-0.5,5.8-1.6c-8.1-12.7-24.1-12.3-35.5-4.3
						C153.7,287.9,159.5,287.5,160.7,286.6L160.7,286.6z"/>
				</g>
			</g>
		</g>
	</g>
</g>
</svg>
